<?xml version="1.0" encoding="utf-8"?>
<!-- Generator: Adobe Illustrator 16.0.0, SVG Export Plug-In . SVG Version: 6.00 Build 0)  -->
<!DOCTYPE svg PUBLIC "-//W3C//DTD SVG 1.1//EN" "http://www.w3.org/Graphics/SVG/1.1/DTD/svg11.dtd">
<svg version="1.1" id="圖層_1" xmlns="http://www.w3.org/2000/svg" xmlns:xlink="http://www.w3.org/1999/xlink" x="0px" y="0px"
	 width="220.489px" height="404.98px" viewBox="0 0 220.489 404.98" enable-background="new 0 0 220.489 404.98"
	 xml:space="preserve">
<g>
	
		<path fill="#FFFFFF" stroke="#5E6EA5" stroke-width="3" stroke-linecap="round" stroke-linejoin="round" stroke-miterlimit="10" d="
		M112.89,114.825c-53.329,0-96.56,13.264-96.56,29.64v215.08c0,16.372,43.23,29.643,96.56,29.643
		c53.332,0,96.556-13.271,96.556-29.643v-215.08C209.445,128.089,166.222,114.825,112.89,114.825z"/>
	
		<path fill="#FFFFFF" stroke="#5E6EA5" stroke-width="3" stroke-linecap="round" stroke-linejoin="round" stroke-miterlimit="10" d="
		M112.89,56.964c-31.779,0-57.543,4.74-57.543,10.607v76.983c0,5.862,25.764,10.605,57.543,10.605
		c31.767,0,57.534-4.743,57.534-10.605V67.571C170.424,61.705,144.656,56.964,112.89,56.964z"/>
	<g>
		
			<path fill="#FFFFFF" stroke="#5E6EA5" stroke-width="3" stroke-linecap="round" stroke-linejoin="round" stroke-miterlimit="10" d="
			M189.568,79.858c0,15.312-18.859,42.295-76.688,42.295c-56.607,0-76.662-26.983-76.662-42.295
			c0-15.316,34.329-13.162,76.662-13.162C155.266,66.696,189.568,64.542,189.568,79.858z"/>
		<g>
			
				<path fill="#FFFFFF" stroke="#5E6EA5" stroke-width="3" stroke-linecap="round" stroke-linejoin="round" stroke-miterlimit="10" d="
				M189.568,75.226c0,15.317-34.303,27.732-76.688,27.732c-42.333,0-76.662-12.416-76.662-27.732
				c0-15.312,34.329-27.727,76.662-27.727C155.266,47.499,189.568,59.914,189.568,75.226z"/>
			
				<path fill="#FFFFFF" stroke="#2F334F" stroke-width="3" stroke-linecap="round" stroke-linejoin="round" stroke-miterlimit="10" d="
				M171.877,73.4c0,8.095-26.408,14.65-59.014,14.65C80.307,88.05,53.9,81.495,53.9,73.4c0-8.093,26.406-14.65,58.963-14.65
				C145.469,58.75,171.877,65.308,171.877,73.4z"/>
		</g>
	</g>
	<path fill="none" stroke="#5E6EA5" stroke-width="3" stroke-linecap="round" stroke-linejoin="round" stroke-miterlimit="10" d="
		M194.509,147.26c0,13.841-36.542,25.064-81.619,25.064c-45.074,0-81.619-11.223-81.619-25.064"/>
	<linearGradient id="SVGID_1_" gradientUnits="userSpaceOnUse" x1="112.4258" y1="352.187" x2="113.1612" y2="231.1044">
		<stop  offset="0" style="stop-color:#B1E2F8"/>
		<stop  offset="1" style="stop-color:#00A0E9"/>
	</linearGradient>
	
		<path fill="url(#SVGID_1_)" stroke="#5E6EA5" stroke-width="3" stroke-linecap="round" stroke-linejoin="round" stroke-miterlimit="10" d="
		M16.33,192.821v166.725c0,16.372,43.23,29.643,96.56,29.643c53.332,0,96.556-13.271,96.556-29.643V194.282"/>
	
		<path fill="#FFFFFF" stroke="#5E6EA5" stroke-width="3" stroke-linecap="round" stroke-linejoin="round" stroke-miterlimit="10" d="
		M209.445,189.406c0,15.983-43.708,28.94-95.751,28.94c-52.041,0-97.364-12.958-97.364-28.94"/>
</g>
<g>
	<linearGradient id="SVGID_2_" gradientUnits="userSpaceOnUse" x1="65.877" y1="57.1006" x2="152.0933" y2="57.5905">
		<stop  offset="0" style="stop-color:#7C5C33"/>
		<stop  offset="0.3749" style="stop-color:#9E7D49"/>
		<stop  offset="1" style="stop-color:#7C5C33"/>
	</linearGradient>
	
		<path fill="url(#SVGID_2_)" stroke="#472C18" stroke-width="3" stroke-linecap="round" stroke-linejoin="round" stroke-miterlimit="10" d="
		M170.424,73.425c0,0-5.735,14.615-57.143,14.615c-51.408,0-55.84-12.809-55.84-12.809L53.9,27.029h117.968L170.424,73.425z"/>
	<linearGradient id="SVGID_3_" gradientUnits="userSpaceOnUse" x1="96.2773" y1="-10.1553" x2="118.809" y2="40.296">
		<stop  offset="0.3749" style="stop-color:#9E7D49"/>
		<stop  offset="1" style="stop-color:#7C5C33"/>
	</linearGradient>
	
		<path fill="url(#SVGID_3_)" stroke="#472C18" stroke-width="3" stroke-linecap="round" stroke-linejoin="round" stroke-miterlimit="10" d="
		M171.868,27.029c0,8.095-26.399,14.65-59.005,14.65c-32.557,0-58.963-6.555-58.963-14.65s26.406-14.65,58.963-14.65
		C145.469,12.378,171.868,18.934,171.868,27.029z"/>
</g>
<g>
	<g>
		<path fill="#684A2A" d="M93.435,64.493c-1.393,0-2.266-1.227-2.649-1.766c-0.627-0.884-0.42-2.104,0.459-2.732
			c0.529-0.371,1.187-0.446,1.758-0.264c0.244-0.324,0.546-0.615,0.941-0.842c1.638-0.944,3.192-1.558,4.627-2.077
			c1.014-0.371,2.14,0.158,2.511,1.17c0.371,1.018-0.153,2.139-1.171,2.51c-1.734,0.633-2.901,1.153-4.019,1.795
			c-0.258,0.831-0.824,2.063-2.232,2.197C93.584,64.493,93.506,64.493,93.435,64.493z"/>
	</g>
	<g>
		<path fill="#684A2A" d="M129.293,62.222c-1.022,0-1.769-0.422-2.106-0.657c-0.884-0.618-1.097-1.826-0.484-2.715
			c0.596-0.853,1.737-1.091,2.631-0.562c0.227-0.089,0.751-0.436,1.377-1.206c0.68-0.833,1.915-0.96,2.759-0.271
			c0.836,0.684,0.955,1.921,0.271,2.754C132.034,61.651,130.479,62.222,129.293,62.222z"/>
	</g>
	<g>
		<path fill="#684A2A" d="M120.794,74.653c-0.018,0-0.04,0-0.058,0c-1.084-0.036-1.933-0.938-1.902-2.017
			c0.014-0.396,0.022-0.682-2.812-0.862c-1.164-0.073-2.262-0.145-3.194-0.546c-0.991-0.434-1.444-1.584-1.018-2.579
			c0.431-0.993,1.568-1.444,2.581-1.02c0.302,0.135,1.213,0.191,1.879,0.233c2.146,0.138,6.615,0.422,6.482,4.887
			C122.718,73.813,121.851,74.653,120.794,74.653z"/>
	</g>
	<g>
		<path fill="#684A2A" d="M151.489,75.633c-0.369,0-0.747-0.104-1.08-0.327l-0.662-0.444c-1.506-1.021-2.168-1.435-3.496-1.213
			c-1.058,0.127-2.07-0.558-2.248-1.626c-0.164-1.068,0.56-2.075,1.631-2.246c2.923-0.451,4.643,0.708,6.317,1.844l0.617,0.417
			c0.906,0.593,1.155,1.811,0.556,2.715C152.751,75.322,152.124,75.633,151.489,75.633z"/>
	</g>
	<g>
		<path fill="#684A2A" d="M156.803,56.36c-1.124,0-2.195-0.289-2.959-0.495c-0.284-0.071-0.538-0.145-0.765-0.187
			c-1.065-0.207-1.759-1.237-1.555-2.297c0.213-1.066,1.249-1.752,2.297-1.553c0.307,0.06,0.657,0.153,1.035,0.253
			c1.222,0.329,2.262,0.562,2.621,0.122c0.68-0.842,1.92-0.979,2.75-0.302c0.845,0.675,0.982,1.908,0.303,2.75
			C159.468,55.976,158.1,56.36,156.803,56.36z"/>
	</g>
	<g>
		<path fill="#684A2A" d="M163.578,47.55c-0.561,0-1.12-0.242-1.507-0.704c-0.253-0.302-0.497-0.644-0.741-0.993
			c-0.4-0.564-0.725-1.446-1.182-1.25c-1.058,0.047-2.026-0.708-2.115-1.786c-0.094-1.077,0.706-2.026,1.786-2.117
			c2.515-0.253,3.892,1.73,4.714,2.892c0.182,0.26,0.359,0.518,0.546,0.744c0.693,0.829,0.582,2.066-0.248,2.759
			C164.467,47.401,164.022,47.55,163.578,47.55z"/>
	</g>
	<g>
		<path fill="#684A2A" d="M75.726,60.612c-0.631,0-1.25-0.307-1.626-0.869c-0.497-0.74-0.422-1.697,0.122-2.346
			c-0.286-0.747-0.095-1.628,0.545-2.182c0.806-0.72,2.05-0.64,2.763,0.191c0.646,0.742,0.938,1.644,0.817,2.544
			c-0.122,0.924-0.664,1.75-1.53,2.328C76.481,60.503,76.102,60.612,75.726,60.612z"/>
	</g>
	<g>
		<path fill="#684A2A" d="M66.223,48.87c-0.73,0-1.515-0.143-2.356-0.493c-0.995-0.418-1.467-1.566-1.049-2.563
			c0.422-1,1.566-1.466,2.563-1.051c0.995,0.415,1.708,0.115,3.367-0.795c0.518-0.28,1.047-0.566,1.598-0.82
			c0.984-0.431,2.146-0.011,2.595,0.982c0.444,0.986,0.007,2.146-0.979,2.595c-0.465,0.207-0.9,0.446-1.333,0.684
			C69.399,48.081,67.953,48.87,66.223,48.87z"/>
	</g>
	<g>
		<path fill="#684A2A" d="M79.32,78.245c-0.349,0-0.7-0.091-1.018-0.282c-1.138-0.693-1.726-1.699-2.197-2.508
			c-0.3-0.509-0.555-0.949-0.861-1.166c-0.88-0.629-1.087-1.848-0.46-2.732c0.635-0.88,1.853-1.084,2.732-0.46
			c0.993,0.704,1.535,1.635,1.973,2.381c0.297,0.513,0.558,0.96,0.849,1.133c0.922,0.562,1.217,1.769,0.657,2.695
			C80.624,77.91,79.982,78.245,79.32,78.245z"/>
	</g>
	<g>
		<path fill="#684A2A" d="M114.645,55.8c-1.234,0-2.501-0.103-3.67-0.536c-1.017-0.375-1.537-1.5-1.159-2.515
			c0.369-1.017,1.515-1.535,2.515-1.159c0.995,0.364,2.471,0.306,3.896,0.249c0.556-0.022,1.102-0.046,1.626-0.046
			c1.084,0,1.964,0.877,1.964,1.959c0,1.084-0.88,1.959-1.964,1.959c-0.467,0-0.964,0.024-1.466,0.042
			C115.822,55.778,115.235,55.8,114.645,55.8z"/>
	</g>
</g>
<g>
	<g>
		<path fill="#684A2A" d="M92.233,28.331c-1.394,0-2.267-0.609-2.65-0.882c-0.626-0.439-0.427-1.048,0.46-1.361
			c0.521-0.185,1.18-0.222,1.753-0.133c0.246-0.162,0.544-0.302,0.941-0.418c1.638-0.471,3.192-0.773,4.623-1.033
			c1.02-0.189,2.144,0.076,2.51,0.582c0.376,0.509-0.153,1.066-1.161,1.25c-1.737,0.318-2.91,0.575-4.028,0.896
			c-0.251,0.413-0.817,1.03-2.226,1.095C92.378,28.331,92.302,28.331,92.233,28.331z"/>
	</g>
	<g>
		<path fill="#684A2A" d="M128.084,30.503c-1.017,0-1.759-0.207-2.105-0.324c-0.88-0.311-1.093-0.911-0.479-1.355
			c0.595-0.424,1.736-0.544,2.63-0.28c0.222-0.044,0.751-0.218,1.377-0.6c0.676-0.413,1.915-0.48,2.759-0.136
			c0.831,0.342,0.955,0.958,0.275,1.375C130.825,30.221,129.279,30.503,128.084,30.503z"/>
	</g>
	<g>
		<path fill="#684A2A" d="M119.59,37.469c-0.018,0-0.04,0-0.062,0c-1.079-0.02-1.928-0.467-1.896-1.006
			c0.013-0.2,0.021-0.337-2.817-0.429c-1.164-0.036-2.261-0.073-3.186-0.273c-0.995-0.213-1.452-0.791-1.026-1.284
			c0.432-0.496,1.577-0.72,2.586-0.511c0.302,0.067,1.213,0.096,1.875,0.116c2.154,0.069,6.624,0.215,6.486,2.439
			C121.518,37.047,120.643,37.469,119.59,37.469z"/>
	</g>
	<g>
		<path fill="#684A2A" d="M150.28,33.886c-0.368,0-0.741-0.054-1.07-0.165l-0.667-0.222c-1.506-0.509-2.163-0.715-3.496-0.6
			c-1.058,0.06-2.065-0.285-2.253-0.815c-0.168-0.533,0.569-1.033,1.631-1.117c2.924-0.227,4.647,0.351,6.317,0.917l0.627,0.207
			c0.901,0.295,1.146,0.904,0.551,1.351C151.542,33.733,150.925,33.886,150.28,33.886z"/>
	</g>
	<g>
		<path fill="#684A2A" d="M155.594,25.211c-1.119,0-2.189-0.146-2.954-0.249c-0.284-0.04-0.537-0.074-0.764-0.096
			c-1.066-0.1-1.765-0.613-1.556-1.142c0.204-0.531,1.249-0.875,2.297-0.773c0.307,0.027,0.658,0.074,1.031,0.127
			c1.226,0.16,2.266,0.28,2.616,0.062c0.689-0.422,1.933-0.491,2.76-0.153c0.839,0.335,0.977,0.953,0.306,1.369
			C158.265,25.018,156.896,25.211,155.594,25.211z"/>
	</g>
	<g>
		<path fill="#684A2A" d="M137.881,21.353c-0.564,0-1.115-0.118-1.506-0.349c-0.254-0.153-0.498-0.325-0.742-0.498
			c-0.4-0.28-0.72-0.72-1.182-0.624c-1.054,0.024-2.026-0.355-2.119-0.891c-0.089-0.536,0.71-1.011,1.785-1.055
			c2.515-0.126,3.896,0.864,4.714,1.446c0.183,0.129,0.369,0.256,0.552,0.371c0.688,0.413,0.582,1.026-0.245,1.371
			C138.77,21.28,138.325,21.353,137.881,21.353z"/>
	</g>
	<g>
		<path fill="#684A2A" d="M70.572,26.398c-0.629,0-1.258-0.153-1.624-0.438c-0.504-0.366-0.429-0.842,0.122-1.166
			c-0.291-0.375-0.1-0.811,0.535-1.091c0.813-0.36,2.053-0.313,2.772,0.1c0.643,0.366,0.934,0.817,0.812,1.266
			c-0.123,0.462-0.658,0.873-1.531,1.16C71.321,26.344,70.945,26.398,70.572,26.398z"/>
	</g>
	<g>
		<path fill="#684A2A" d="M88.757,19.638c-0.731,0-1.516-0.069-2.357-0.245c-0.995-0.211-1.466-0.782-1.048-1.282
			c0.422-0.493,1.565-0.729,2.563-0.522c0.995,0.209,1.708,0.058,3.367-0.393c0.518-0.142,1.047-0.287,1.598-0.409
			c0.983-0.22,2.15-0.009,2.595,0.484c0.443,0.496,0.006,1.073-0.98,1.3c-0.464,0.098-0.899,0.22-1.332,0.34
			C91.934,19.245,90.487,19.638,88.757,19.638z"/>
	</g>
	<g>
		<path fill="#684A2A" d="M81.548,32.789c-0.353,0-0.704-0.046-1.026-0.142c-1.133-0.344-1.721-0.846-2.189-1.25
			c-0.305-0.249-0.558-0.471-0.864-0.582c-0.88-0.313-1.087-0.92-0.46-1.364c0.635-0.435,1.853-0.537,2.732-0.224
			c0.995,0.349,1.532,0.811,1.975,1.186c0.291,0.256,0.551,0.478,0.842,0.566c0.927,0.28,1.227,0.88,0.66,1.34
			C82.848,32.62,82.206,32.789,81.548,32.789z"/>
	</g>
	<g>
		<path fill="#684A2A" d="M113.437,23.994c-1.227,0-2.497-0.051-3.67-0.264c-1.018-0.189-1.537-0.751-1.155-1.251
			c0.369-0.511,1.516-0.766,2.511-0.58c0.995,0.18,2.475,0.151,3.896,0.122c0.561-0.011,1.111-0.022,1.631-0.022
			c1.089,0,1.959,0.438,1.959,0.979c0,0.535-0.87,0.973-1.959,0.973c-0.476,0-0.964,0.011-1.471,0.022
			C114.613,23.985,114.031,23.994,113.437,23.994z"/>
	</g>
</g>
</svg>
